<mxfile host="Electron" agent="Mozilla/5.0 (Macintosh; Intel Mac OS X 10_15_7) AppleWebKit/537.36 (KHTML, like Gecko) draw.io/24.7.5 Chrome/126.0.6478.183 Electron/31.3.0 Safari/537.36" version="24.7.5">
  <diagram name="Page-1" id="VHJU6-cszyzxrxUInnnD">
    <mxGraphModel dx="954" dy="622" grid="1" gridSize="10" guides="1" tooltips="1" connect="1" arrows="1" fold="1" page="1" pageScale="1" pageWidth="827" pageHeight="1169" math="0" shadow="0">
      <root>
        <mxCell id="0" />
        <mxCell id="1" parent="0" />
        <mxCell id="uB0jlZi506iNcoQBDz3S-1" value="Blockchain network" style="ellipse;whiteSpace=wrap;html=1;aspect=fixed;dashed=1;dashPattern=12 12;" vertex="1" parent="1">
          <mxGeometry x="214" y="200" width="250" height="250" as="geometry" />
        </mxCell>
        <mxCell id="uB0jlZi506iNcoQBDz3S-2" value="" style="whiteSpace=wrap;html=1;aspect=fixed;fillColor=none;" vertex="1" parent="1">
          <mxGeometry x="274" y="450" width="130" height="130" as="geometry" />
        </mxCell>
        <mxCell id="uB0jlZi506iNcoQBDz3S-15" value="" style="edgeStyle=orthogonalEdgeStyle;rounded=0;orthogonalLoop=1;jettySize=auto;html=1;" edge="1" parent="1" source="uB0jlZi506iNcoQBDz3S-3" target="uB0jlZi506iNcoQBDz3S-14">
          <mxGeometry relative="1" as="geometry" />
        </mxCell>
        <mxCell id="uB0jlZi506iNcoQBDz3S-3" value="Consumer" style="shape=umlActor;verticalLabelPosition=bottom;verticalAlign=top;html=1;outlineConnect=0;" vertex="1" parent="1">
          <mxGeometry x="324" y="50" width="30" height="60" as="geometry" />
        </mxCell>
        <mxCell id="uB0jlZi506iNcoQBDz3S-4" value="Distiller" style="text;strokeColor=none;fillColor=none;align=left;verticalAlign=middle;spacingLeft=4;spacingRight=4;overflow=hidden;points=[[0,0.5],[1,0.5]];portConstraint=eastwest;rotatable=0;whiteSpace=wrap;html=1;" vertex="1" parent="1">
          <mxGeometry x="314" y="540" width="80" height="30" as="geometry" />
        </mxCell>
        <mxCell id="uB0jlZi506iNcoQBDz3S-5" value="Blockchain&lt;div&gt;Node&lt;/div&gt;" style="rounded=0;whiteSpace=wrap;html=1;fontSize=8;" vertex="1" parent="1">
          <mxGeometry x="314" y="420" width="50" height="50" as="geometry" />
        </mxCell>
        <mxCell id="uB0jlZi506iNcoQBDz3S-6" value="" style="whiteSpace=wrap;html=1;aspect=fixed;fillColor=none;" vertex="1" parent="1">
          <mxGeometry x="480" y="265" width="130" height="130" as="geometry" />
        </mxCell>
        <mxCell id="uB0jlZi506iNcoQBDz3S-7" value="Vineyard" style="text;strokeColor=none;fillColor=none;align=left;verticalAlign=middle;spacingLeft=4;spacingRight=4;overflow=hidden;points=[[0,0.5],[1,0.5]];portConstraint=eastwest;rotatable=0;whiteSpace=wrap;html=1;" vertex="1" parent="1">
          <mxGeometry x="505" y="355" width="80" height="30" as="geometry" />
        </mxCell>
        <mxCell id="uB0jlZi506iNcoQBDz3S-8" value="Blockchain&lt;div&gt;Node&lt;/div&gt;" style="rounded=0;whiteSpace=wrap;html=1;fontSize=8;" vertex="1" parent="1">
          <mxGeometry x="440" y="300" width="50" height="50" as="geometry" />
        </mxCell>
        <mxCell id="uB0jlZi506iNcoQBDz3S-9" value="" style="whiteSpace=wrap;html=1;aspect=fixed;fillColor=none;" vertex="1" parent="1">
          <mxGeometry x="60" y="260" width="130" height="130" as="geometry" />
        </mxCell>
        <mxCell id="uB0jlZi506iNcoQBDz3S-10" value="Merchant" style="text;strokeColor=none;fillColor=none;align=left;verticalAlign=middle;spacingLeft=4;spacingRight=4;overflow=hidden;points=[[0,0.5],[1,0.5]];portConstraint=eastwest;rotatable=0;whiteSpace=wrap;html=1;" vertex="1" parent="1">
          <mxGeometry x="80" y="360" width="80" height="30" as="geometry" />
        </mxCell>
        <mxCell id="uB0jlZi506iNcoQBDz3S-11" value="Blockchain&lt;div&gt;Node&lt;/div&gt;" style="rounded=0;whiteSpace=wrap;html=1;fontSize=8;" vertex="1" parent="1">
          <mxGeometry x="180" y="290" width="50" height="50" as="geometry" />
        </mxCell>
        <mxCell id="uB0jlZi506iNcoQBDz3S-14" value="&lt;font style=&quot;font-size: 8px;&quot;&gt;Web3&amp;nbsp; + wallet&lt;/font&gt;" style="rounded=1;whiteSpace=wrap;html=1;" vertex="1" parent="1">
          <mxGeometry x="304" y="150" width="70" height="60" as="geometry" />
        </mxCell>
      </root>
    </mxGraphModel>
  </diagram>
</mxfile>
